<?xml version="1.0" encoding="utf-8"?>
<!-- Generator: Adobe Illustrator 24.1.1, SVG Export Plug-In . SVG Version: 6.00 Build 0)  -->
<svg version="1.1" xmlns="http://www.w3.org/2000/svg" xmlns:xlink="http://www.w3.org/1999/xlink" x="0px" y="0px"
	 viewBox="0 0 2000 2000" style="enable-background:new 0 0 2000 2000;" xml:space="preserve">
<style type="text/css">
	.st0{display:none;}
	.st1{display:inline;}
	.st2{fill:#FFAA16;}
	.st3{display:inline;fill:#FFC943;}
	.st4{fill:#FF914D;}
	.st5{fill:#FFFFFF;}
	.st6{fill:#E2EBF9;}
	.st7{display:inline;fill:#434C54;}
	.st8{display:inline;fill:#F9AF38;}
	.st9{display:inline;fill:#FF914D;}
	.st10{display:inline;fill:#FF8125;}
	.st11{display:inline;fill:#FFFFFF;}
	.st12{display:inline;fill:#E2EBF9;}
	.st13{display:inline;fill:#76FFDA;}
	.st14{display:inline;fill:#5DE1C0;}
	.st15{display:inline;fill:#00C395;}
	.st16{display:inline;fill:#FFAA16;}
	.st17{fill:#76FFDA;}
	.st18{fill:#434C54;}
	.st19{display:inline;fill:none;stroke:#434C54;stroke-width:26;stroke-miterlimit:10;}
	.st20{display:inline;fill:none;stroke:#434C54;stroke-width:29;stroke-miterlimit:10;}
	.st21{display:inline;fill:none;stroke:#434C54;stroke-width:28;stroke-miterlimit:10;}
	.st22{display:inline;fill:none;stroke:#434C54;stroke-width:23;stroke-miterlimit:10;}
	.st23{display:inline;fill:#CAEF2E;}
	.st24{fill:#00C395;}
	.st25{display:inline;fill:#5EC37A;}
	.st26{fill:#CAEF2E;}
	.st27{fill:none;stroke:#434C54;stroke-width:10;stroke-miterlimit:10;}
	.st28{fill:#FF8125;}
	.st29{fill:#5EC37A;}
	.st30{display:inline;fill:#4E818B;stroke:#434C54;stroke-width:13;stroke-miterlimit:10;}
	.st31{display:inline;opacity:0.19;fill:#FFFFFF;}
	.st32{display:inline;fill:none;stroke:#434C54;stroke-width:13;stroke-miterlimit:10;}
	.st33{display:inline;fill:none;stroke:#434C54;stroke-width:10;stroke-miterlimit:10;}
	.st34{display:inline;fill:none;stroke:#434C54;stroke-width:8;stroke-miterlimit:10;}
	.st35{display:inline;fill:none;stroke:#434C54;stroke-width:7;stroke-miterlimit:10;}
</style>
<g id="Layer_1" class="st0">
	<g class="st1">
		<path class="st2" d="M334.79,1246.49l-22.9,16.01l-112.19,64.42c-53.73,30.85-70.5,100.49-36.7,152.4
			c20.75,31.93,55.33,49.07,90.51,49.07c22.1,0,44.41-6.74,63.68-20.87l234.11-171.58l3.3-4.11L334.79,1246.49z"/>
		<path class="st2" d="M1818,1326.93l-112.19-64.42l-6.05-5.21l-252.91,66.64l19.55,12.01l234.11,171.58
			c19.26,14.12,41.58,20.87,63.68,20.87c35.17,0,69.75-17.14,90.51-49.07C1888.5,1427.42,1871.73,1357.78,1818,1326.93z"/>
	</g>
	<path class="st3" d="M1902.84,795.74h-23.96c0-25.71-10.43-49.03-27.27-65.88c-16.84-16.84-40.17-27.27-65.88-27.27h-663.24h-13.53
		c-27.13,0-53.13,10.77-72.32,29.96c-7.38,7.38-17.07,11.1-26.79,11.1c-9.32,0-18.59-3.43-25.9-10.25l-3.35-3.17
		c-18.97-17.77-43.97-27.65-69.94-27.65h-34.09H231.97c-51.46,0-93.15,41.69-93.15,93.15h-23.96c-17.62,0-31.93,14.31-31.93,31.93
		V976.2c0,17.62,14.31,31.93,31.93,31.93h31.52c20.46,104.81,81.23,195.21,165.51,254.38c65.95,46.31,146.36,73.52,233.06,73.52
		c2.12,0,4.25,0,6.33-0.07c109.66-1.64,208.73-46.76,280.87-118.86c73.48-73.52,118.94-175.05,118.94-287.2v-40.95
		c0-16.47,13.38-29.85,29.85-29.85h55.82c16.47,0,29.85,13.38,29.85,29.85v40.95c0,222.18,178.4,402.71,399.81,406.07
		c2.09,0.07,4.21,0.07,6.33,0.07c86.71,0,167.11-27.2,233.06-73.52c9.17-6.41,18.03-13.19,26.6-20.34
		c70.39-58.61,120.69-140.58,138.91-234.03h31.52c17.62,0,31.93-14.31,31.93-31.93V827.68
		C1934.77,810.05,1920.47,795.74,1902.84,795.74z"/>
	<g class="st1">
		<path class="st4" d="M1705.81,1262.51l-6.05-5.21l-252.91,66.64l19.55,12.01l110.03,80.64c46.99-12.38,90.68-32.9,129.37-60.08
			c9.17-6.41,18.03-13.19,26.6-20.34c13.55-11.29,26.34-23.45,38.32-36.39L1705.81,1262.51z"/>
		<path class="st4" d="M311.89,1262.51l-64.93,37.29c19.55,21.11,41.32,40.14,64.93,56.72c38.69,27.17,82.38,47.69,129.37,60.08
			l110.03-80.64l3.3-4.11l-219.8-85.34L311.89,1262.51z"/>
	</g>
	<g class="st1">
		<path class="st2" d="M1834.88,1066.18c-8.57,7.15-17.44,13.94-26.6,20.34c-65.95,46.31-146.36,73.52-233.06,73.52
			c-2.12,0-4.25,0-6.33-0.07c-221.4-3.35-399.81-183.88-399.81-406.07v-40.95c0-3.65-0.69-7.13-1.89-10.36h-44.69h-13.53
			c-19.81,0-39.01,5.76-55.41,16.34v34.97c0,36.44-4.83,71.74-13.82,105.34c15.07,1.5,26.86,14.23,26.86,29.69v40.95
			c0,222.18,178.4,402.71,399.81,406.07c2.09,0.07,4.21,0.07,6.33,0.07c86.71,0,167.11-27.2,233.06-73.52
			c9.17-6.41,18.03-13.19,26.6-20.34c62.39-51.95,108.94-122.27,131.41-202.65C1854.6,1048.84,1844.97,1057.78,1834.88,1066.18z"/>
		<path class="st2" d="M934.63,1041.11c-72.14,72.1-171.21,117.22-280.87,118.86c-2.09,0.07-4.21,0.07-6.33,0.07
			c-86.71,0-167.11-27.2-233.06-73.52c-84.28-59.17-145.06-149.56-165.51-254.38h-31.52c-17.62,0-31.93-14.31-31.93-31.93v-85.14
			c-27.84,16.1-46.58,46.18-46.58,80.66h-23.96c-17.62,0-31.93,14.31-31.93,31.93v148.52c0,17.62,14.31,31.93,31.93,31.93h31.52
			c20.46,104.81,81.23,195.21,165.51,254.38c65.95,46.31,146.36,73.52,233.06,73.52c2.12,0,4.25,0,6.33-0.07
			c109.66-1.64,208.73-46.76,280.87-118.86c48.57-48.59,84.88-109.43,103.92-177.48C935.59,1040.11,935.12,1040.61,934.63,1041.11z"
			/>
	</g>
	<g class="st1">
		<path class="st5" d="M1774.55,828.91v97.14c0,166.14-132.68,304.01-298.83,305.65c-167.78,1.6-304.79-134.4-304.79-301.81V828.91
			c0-12.15,9.84-21.98,21.98-21.98h559.65C1764.72,806.92,1774.55,816.76,1774.55,828.91z"/>
		<path class="st5" d="M846.77,828.91v100.98c0,167.41-137.01,303.41-304.79,301.81c-166.14-1.64-298.83-139.5-298.83-305.65V821.94
			c0-8.29,6.72-15.02,15.02-15.02h566.62C836.92,806.92,846.77,816.76,846.77,828.91z"/>
	</g>
	<g class="st1">
		<path class="st6" d="M1349.02,877.36v-70.44h-156.1c-12.15,0-21.98,9.84-21.98,21.98v100.98c0,167.41,137.01,303.41,304.79,301.81
			c61.72-0.61,118.8-20.04,166.19-52.71C1479.61,1174.22,1349.02,1040.79,1349.02,877.36z"/>
		<path class="st6" d="M421.23,873.52v-66.6H258.16c-8.29,0-15.02,6.72-15.02,15.02v104.11c0,166.14,132.68,304.01,298.83,305.65
			c64.2,0.61,123.85-18.97,173.09-52.7C551.27,1174.66,421.23,1037.99,421.23,873.52z"/>
	</g>
	<path class="st7" d="M1903.58,767.8c-12.65-53.35-60.69-93.16-117.84-93.16h-676.77c-34.78,0-67.48,13.54-92.07,38.14
		c-3.82,3.81-9.89,3.91-13.82,0.22l-3.35-3.14c-24.22-22.71-55.85-35.21-89.05-35.21H231.97c-57.16,0-105.19,39.81-117.84,93.16
		c-32.68,0.38-59.14,27.09-59.14,59.86v148.55c0,33.01,26.85,59.86,59.86,59.86h9.15c22.31,88.81,71.64,165.82,138.04,222.85
		l-76.26,43.79c-32.71,18.78-55.58,49.32-64.41,85.99c-8.83,36.67-2.37,74.27,18.2,105.88c20.57,31.61,52.33,52.76,89.43,59.54
		c8.31,1.52,16.61,2.27,24.85,2.27c28.56,0,56.25-9.02,79.86-26.32l44.51-32.62c12.45-9.13,15.15-26.62,6.02-39.06
		c-9.12-12.45-26.61-15.14-39.06-6.02l-44.52,32.62c-17.9,13.13-39.79,18.15-61.63,14.16c-21.83-3.99-40.52-16.44-52.63-35.04
		c-12.11-18.61-15.91-40.74-10.71-62.32c5.2-21.58,18.66-39.55,37.91-50.61l97.31-55.87c48.8,31.28,104.05,53.01,162.88,62.79
		l-38.21,28c-12.45,9.13-15.14,26.62-6.02,39.06c5.47,7.47,13.96,11.43,22.56,11.43c5.73,0,11.52-1.76,16.5-5.41l92.11-67.5
		c232.07-8.33,418.31-199.72,418.31-433.8v-40.93c0-1.05,0.86-1.92,1.92-1.92h55.79c1.05,0,1.92,0.86,1.92,1.92v40.93
		c0,234.07,186.23,425.47,418.31,433.8L1684,1530.07c23.62,17.31,51.3,26.32,79.87,26.32c8.23,0,16.54-0.75,24.85-2.27
		c37.1-6.78,68.86-27.93,89.43-59.54c20.57-31.61,27.03-69.22,18.2-105.89c-8.83-36.66-31.71-67.2-64.41-85.98l-76.26-43.79
		c66.4-57.03,115.73-134.04,138.04-222.85h9.15c33.01,0,59.86-26.85,59.86-59.86V827.67
		C1962.72,794.89,1936.25,768.19,1903.58,767.8z M1804.09,1351.18c19.25,11.05,32.71,29.02,37.91,50.6
		c5.2,21.58,1.39,43.71-10.71,62.32c-12.11,18.6-30.8,31.05-52.63,35.04c-21.83,3.98-43.72-1.04-61.63-14.16l-173.13-126.88
		c58.83-9.78,114.09-31.51,162.88-62.79L1804.09,1351.18z M1906.83,976.21c0,2.19-1.78,3.97-3.97,3.97h-31.53
		c-13.37,0-24.87,9.47-27.43,22.59c-34.53,176.91-190.62,305.3-371.15,305.3c-1.54,0-3.08-0.01-4.61-0.03
		c-0.86-0.05-1.72-0.07-2.58-0.04c-205.23-3.85-371-171.99-371-378.13v-40.93c0-31.88-25.93-57.81-57.81-57.81h-55.79
		c-31.87,0-57.81,25.93-57.81,57.81v40.93c0,206.16-165.82,374.33-371.09,378.13c-0.8-0.02-1.61-0.01-2.42,0.04
		c-1.56,0.02-3.12,0.03-4.68,0.03c-180.53,0-336.62-128.4-371.15-305.3c-2.56-13.12-14.06-22.59-27.43-22.59h-31.53
		c-2.19,0-3.97-1.78-3.97-3.97V827.66c0-2.19,1.78-3.97,3.97-3.97h23.97c15.43,0,27.95-12.51,27.95-27.95
		c0-35.95,29.25-65.21,65.21-65.21h678.69c18.95,0,37,7.14,50.83,20.1l3.36,3.14c26.08,24.45,66.3,23.8,91.57-1.48
		c14.04-14.04,32.7-21.77,52.55-21.77h676.77c35.95,0,65.21,29.25,65.21,65.21c0,15.44,12.51,27.95,27.95,27.95h23.97
		c2.19,0,3.97,1.78,3.97,3.97V976.21z"/>
</g>
<g id="Layer_10" class="st0">
	<path class="st3" d="M721.29,1246.5v251.99v345.07c0,21.48,17.42,38.9,38.9,38.9h98.75h188.36h98.75c21.48,0,38.9-17.42,38.9-38.9
		v-345.07V1246.5H721.29z"/>
	<path class="st8" d="M721.29,1471.6c1.26,0.6,2.5,1.26,3.77,1.85c34.13,16.05,70.21,28.63,107.81,37.23
		c38.67,8.88,78.9,13.55,120.25,13.55c41.35,0,81.58-4.67,120.25-13.55c37.6-8.6,73.68-21.18,107.81-37.23
		c1.27-0.59,2.51-1.25,3.77-1.85V1246.5H721.29L721.29,1471.6L721.29,1471.6z"/>
	<path class="st9" d="M1047.3,1371.96v510.5H858.93v-510.5c30.28,6.95,61.8,10.61,94.18,10.61
		C985.5,1382.57,1017.01,1378.92,1047.3,1371.96z"/>
	<path class="st10" d="M858.93,1371.96v143.98c30.58,5.43,62.04,8.28,94.18,8.28s63.6-2.86,94.18-8.28v-143.98
		c-30.28,6.95-61.8,10.61-94.18,10.61C920.73,1382.57,889.22,1378.92,858.93,1371.96z"/>
	<path class="st3" d="M1138.11,194.44h-90.81H858.93h-90.81c-25.86,0-46.84,20.97-46.84,46.84v25.61v210.1V763.3h463.66V476.98
		V266.71v-25.43C1184.95,215.41,1163.97,194.44,1138.11,194.44z"/>
	<path class="st8" d="M1184.95,503.88c-1.26-0.6-2.5-1.26-3.77-1.85c-34.13-16.05-70.21-28.63-107.81-37.23
		c-38.67-8.88-78.9-13.55-120.25-13.55c-41.35,0-81.58,4.67-120.25,13.55c-37.6,8.6-73.68,21.18-107.81,37.23
		c-1.27,0.59-2.51,1.25-3.77,1.85V763.3h463.66V503.88z"/>
	<path class="st9" d="M1047.3,194.44v419.94c-30.28-6.95-61.8-10.61-94.18-10.61c-32.38,0-63.9,3.66-94.18,10.61V194.44H1047.3z"/>
	<path class="st10" d="M1047.3,614.38V459.53c-30.58-5.43-62.04-8.28-94.18-8.28s-63.6,2.86-94.18,8.28v154.85
		c30.28-6.95,61.8-10.61,94.18-10.61C985.5,603.77,1017.01,607.43,1047.3,614.38z"/>
	<g class="st1">
		<path class="st6" d="M1228.42,498.83v211.26c-29.02-25.18-61.51-46.44-96.68-62.92l11.34-150.55
			c1.16-11.16,10.54-19.63,21.77-19.63h20.1h21.63C1218.64,476.98,1228.42,486.76,1228.42,498.83z"/>
		<path class="st6" d="M763.16,496.62l11.34,150.55c-35.17,16.48-67.67,37.74-96.68,62.92V498.83c0-12.06,9.78-21.84,21.84-21.84
			h21.63h20.1C752.62,476.98,762,485.46,763.16,496.62z"/>
		<path class="st6" d="M1228.42,1287.13v189.49c0,12.1-9.78,21.88-21.84,21.88h-21.63h-20.1c-11.23,0-20.61-8.48-21.77-19.63
			l-11.34-128.81C1166.91,1333.56,1199.4,1312.3,1228.42,1287.13z"/>
		<path class="st6" d="M774.5,1350.05l-11.34,128.81c-1.16,11.16-10.54,19.63-21.77,19.63h-20.1h-21.63
			c-12.06,0-21.84-9.78-21.84-21.88v-189.49C706.83,1312.3,739.32,1333.56,774.5,1350.05z"/>
	</g>
	<path class="st11" d="M1228.42,670.27v-0.04c-29.02-25.18-61.51-46.44-96.68-62.92c-26.73-12.57-54.99-22.42-84.44-29.16
		c-30.28-6.95-61.8-10.61-94.18-10.61c-32.38,0-63.9,3.66-94.18,10.61c-29.45,6.74-57.7,16.59-84.44,29.16
		c-35.17,16.48-67.67,37.75-96.68,62.92v0.04c-88.75,77.01-144.89,190.68-144.89,317.46s56.15,240.45,144.89,317.46v0.04
		c29.02,25.18,61.51,46.44,96.68,62.92c26.73,12.57,54.99,22.42,84.44,29.16c30.28,6.95,61.8,10.61,94.18,10.61
		c32.38,0,63.9-3.66,94.18-10.61c29.45-6.74,57.7-16.59,84.44-29.16c35.17-16.48,67.67-37.74,96.68-62.92v-0.04
		c88.75-77.01,144.89-190.68,144.89-317.46S1317.16,747.28,1228.42,670.27z"/>
	<path class="st12" d="M1265.68,1263.29c-30.28,6.96-61.8,10.61-94.18,10.61s-63.9-3.66-94.18-10.61
		c-29.45-6.74-57.7-16.59-84.44-29.16c-35.17-16.48-67.67-37.74-96.68-62.92v-0.04c-88.75-77.01-144.89-190.68-144.89-317.46
		c0-104.77,38.36-200.55,101.76-274.13c-27.33,6.68-53.62,16-78.57,27.73c-35.17,16.48-67.67,37.75-96.68,62.92v0.04
		c-88.75,77.01-144.89,190.68-144.89,317.46s56.15,240.45,144.89,317.46v0.04c29.02,25.18,61.51,46.44,96.68,62.92
		c26.73,12.57,54.99,22.42,84.44,29.16c30.28,6.95,61.8,10.61,94.18,10.61c32.38,0,63.9-3.66,94.18-10.61
		c29.45-6.74,57.7-16.59,84.44-29.16c35.17-16.48,67.67-37.74,96.68-62.92v-0.04c15.41-13.37,29.82-27.88,43.14-43.34
		C1269.6,1262.34,1267.65,1262.84,1265.68,1263.29z"/>
	<circle class="st13" cx="953.12" cy="987.74" r="326.01"/>
	<path class="st14" d="M1088.2,1215.95c-180.07,0-326.01-145.94-326.01-326.01c0-78.37,27.65-150.26,73.72-206.49
		c-122.15,47.07-208.8,165.54-208.8,304.29c0,180.07,145.94,326.01,326.01,326.01c101.7,0,192.51-46.56,252.29-119.53
		C1169.03,1208.24,1129.52,1215.95,1088.2,1215.95z"/>
	<path class="st7" d="M1400.48,987.74c0-130.16-55.87-247.51-144.89-329.33V498.85c0-25.15-19.04-45.95-43.47-48.71v-160.6
		c50.38-14.25,86.94-60.63,86.94-115.02c0-65.91-53.63-119.54-119.54-119.54H719.47c-65.91,0-119.54,53.63-119.54,119.54
		c0,57.22,40.41,105.17,94.18,116.83v158.78c-24.43,2.77-43.47,23.56-43.47,48.71V658.4c-89.02,81.83-144.89,199.18-144.89,329.33
		s55.87,247.51,144.89,329.33v159.55c0,25.15,19.04,45.95,43.47,48.71v318.2c0,36.44,29.64,66.08,66.08,66.08h385.84
		c36.44,0,66.08-29.65,66.08-66.08v-318.2c24.43-2.77,43.47-23.56,43.47-48.71v-159.55
		C1344.6,1235.25,1400.48,1117.9,1400.48,987.74z M1160.67,591.5l8.96-87.35h31.62v111.51
		C1188.19,606.92,1174.65,598.85,1160.67,591.5z M797.8,568.18l-7.63-74.34c-2.33-22.72-19.73-40.37-41.72-43.52V241.28
		c0-10.85,8.83-19.68,19.67-19.68h369.98c10.85,0,19.68,8.83,19.68,19.68v209.04c-21.99,3.15-39.39,20.81-41.72,43.52l-7.63,74.34
		c-48.4-17.98-100.73-27.81-155.32-27.81S846.2,550.2,797.8,568.18z M654.27,174.52c0-35.95,29.25-65.2,65.2-65.2h460.04
		c35.95,0,65.2,29.25,65.2,65.2c0,24.28-13.36,45.64-33.26,56.85c-4.86-36.14-35.9-64.1-73.35-64.1H768.13
		c-38.59,0-70.38,29.7-73.72,67.43C670.86,224.86,654.27,201.59,654.27,174.52z M704.98,504.15h31.62l8.96,87.35
		c-13.98,7.35-27.52,15.42-40.58,24.16V504.15z M560.09,987.74c0-216.72,176.31-393.03,393.03-393.03s393.03,176.31,393.03,393.03
		s-176.31,393.03-393.03,393.03S560.09,1204.45,560.09,987.74z M745.57,1383.97l-8.96,87.35h-31.62v-111.51
		C718.04,1368.55,731.59,1376.62,745.57,1383.97z M1146.04,1855.29H760.2c-6.48,0-11.74-5.27-11.74-11.74v-318.39
		c21.99-3.15,39.39-20.81,41.72-43.52l7.63-74.34c48.4,17.97,100.73,27.8,155.32,27.8c54.59,0,106.92-9.83,155.32-27.81l7.63,74.33
		c2.33,22.72,19.73,40.38,41.72,43.53v318.39C1157.78,1850.03,1152.51,1855.29,1146.04,1855.29z M1201.25,1471.32h-31.62
		l-8.96-87.35c13.98-7.35,27.52-15.42,40.58-24.16V1471.32z"/>
	<g class="st1">
		<path class="st5" d="M953.12,960.57c-15,0-27.17-12.16-27.17-27.17V774.02c0-15.01,12.16-27.17,27.17-27.17
			c15.01,0,27.17,12.16,27.17,27.17V933.4C980.28,948.41,968.12,960.57,953.12,960.57z"/>
		<path class="st5" d="M1077.64,1158.43c-6.95,0-13.91-2.65-19.21-7.96l-96.8-96.8c-10.61-10.61-10.61-27.81,0-38.42
			c10.61-10.61,27.81-10.61,38.42,0l96.8,96.8c10.61,10.61,10.61,27.81,0,38.42C1091.55,1155.78,1084.59,1158.43,1077.64,1158.43z"
			/>
	</g>
	<path class="st15" d="M1007.45,987.74c0,19.85-10.69,37.24-26.62,46.73c-8.11,4.82-17.57,7.61-27.71,7.61
		c-29.99,0-54.34-24.34-54.34-54.34s24.34-54.34,54.34-54.34C983.11,933.4,1007.45,957.74,1007.45,987.74z"/>
</g>
<g id="Layer_8" class="st0">
	<g class="st1">
		<path class="st2" d="M563.72,254.88h-86.88L127.96,619.62L63.22,687.3c-5.47,5.72-5.4,14.76,0.17,20.39l303.02,306.63
			c5.7,5.77,15.01,5.8,20.74,0.06L476.53,925h0.31l86.88-2.21L563.72,254.88L563.72,254.88z"/>
		<path class="st2" d="M1960.61,687.3l-64.74-67.68l-348.88-364.74H1388.3v664.17l158.69,5.95h0.31l89.38,89.38
			c5.74,5.74,15.04,5.71,20.75-0.06l303.02-306.63C1966,702.06,1966.08,693.02,1960.61,687.3z"/>
	</g>
	<path class="st11" d="M1289.29,166.53c-5.76-1.97-11.76,2.31-11.76,8.4v37.52c0,147.08-117.86,269.19-264.94,269.55
		c-73.64,0.19-140.27-29.57-188.5-77.8c-48.08-48.08-77.8-114.45-77.8-187.82v-42.82c0-5.43-5.34-9.24-10.48-7.48l-258.99,88.8V925
		v788.84c15.4,109.13,1070.16,96.16,1070.16,0V925V254.88L1289.29,166.53z"/>
	<path class="st12" d="M709.1,1638.65c-53.3-11.54-91.22-58.82-91.22-113.35V803.77V206.53l-141.05,48.36v670.12v788.84
		c15.4,109.13,1070.16,96.16,1070.16,0v-68.69C1324.02,1678.56,896.21,1679.16,709.1,1638.65z"/>
	<path class="st7" d="M1991.3,677.62l-74.42-77.8c-0.07-0.07-0.14-0.14-0.21-0.22l-348.82-364.67c-0.01-0.01-0.03-0.03-0.04-0.04
		c-0.15-0.16-0.31-0.32-0.47-0.48c0,0-0.01-0.01-0.02-0.02c-0.17-0.17-0.35-0.34-0.52-0.51c-0.01-0.01-0.02-0.02-0.03-0.02
		c-0.15-0.14-0.3-0.28-0.45-0.41c-0.05-0.05-0.11-0.1-0.16-0.14c-0.11-0.1-0.22-0.19-0.33-0.29c-0.07-0.06-0.13-0.11-0.2-0.17
		c-0.09-0.08-0.19-0.15-0.27-0.23c-0.19-0.16-0.38-0.31-0.57-0.46c-0.01-0.01-0.03-0.02-0.04-0.03c-2.73-2.14-5.77-3.72-8.94-4.74
		l-268.92-92.21c-8.83-3.03-18.56-1.6-26.15,3.82c-7.59,5.42-12.09,14.17-12.09,23.49v53.89c0,130.54-106.2,236.74-236.74,236.74
		s-236.74-106.2-236.74-236.74V162.5c0-9.32-4.51-18.07-12.09-23.49c-7.59-5.42-17.32-6.85-26.15-3.82l-269.19,92.29
		c-2.89,0.96-5.65,2.38-8.18,4.27c-0.04,0.03-0.08,0.06-0.12,0.08c-0.12,0.09-0.23,0.18-0.34,0.26c-0.07,0.05-0.13,0.1-0.2,0.15
		c-0.09,0.07-0.19,0.15-0.28,0.22c-0.16,0.13-0.32,0.26-0.48,0.4c-0.04,0.03-0.08,0.07-0.12,0.1c-0.14,0.12-0.27,0.24-0.4,0.35
		c-0.04,0.03-0.08,0.07-0.12,0.11c-0.52,0.47-1.02,0.96-1.5,1.45c-0.01,0.01-0.03,0.03-0.04,0.04L107.15,599.6
		c-0.07,0.07-0.14,0.14-0.21,0.22l-74.41,77.8c-10.81,11.29-10.66,29.13,0.33,40.25l323.36,327.21c5.4,5.47,12.77,8.55,20.45,8.58
		h0.08c7.66,0,15-3.04,20.42-8.46l50.8-50.8v719.44c0,1.35,0.09,2.7,0.29,4.04c5.11,36.22,44.89,75.71,301.15,93.96
		c74.04,5.27,158.1,7.91,243.46,7.9c89.56,0,180.53-2.9,262.7-8.68c87.88-6.18,161.64-15.4,213.29-26.68
		c52.92-11.55,107.02-28.97,107.01-70.54v-290.56c0-15.94-12.92-28.87-28.87-28.87c-15.95,0-28.87,12.92-28.87,28.87v284.31
		c-10.39,6.93-58.32,29.97-249.17,44.59c-137.82,10.56-306.22,12.76-450.48,5.89c-216.29-10.31-297.56-36.46-312.76-50.3V647.61
		c0-15.94-12.92-28.87-28.87-28.87c-15.95,0-28.87,12.92-28.87,28.87v265.13l-71.1,71.1L93.67,697.25l34.76-36.34l173.72,173.72
		c5.64,5.64,13.03,8.46,20.42,8.46c7.39,0,14.78-2.82,20.42-8.46c11.27-11.27,11.27-29.56,0-40.83L168.35,619.17l279.62-292.33
		v205.29c0,15.94,12.92,28.87,28.87,28.87c15.95,0,28.87-12.92,28.87-28.87V275.51l211.72-72.59v13.47
		c0,162.38,132.1,294.49,294.49,294.49s294.49-132.11,294.49-294.49v-13.47l211.72,72.59V1307.8c0,15.94,12.92,28.87,28.87,28.87
		s28.87-12.92,28.87-28.87V994.4l50.8,50.8c5.42,5.42,12.76,8.46,20.42,8.46h0.08c7.68-0.02,15.04-3.11,20.45-8.58l323.36-327.21
		C2001.96,706.75,2002.11,688.91,1991.3,677.62z M1646.96,983.83l-71.1-71.1v-585.9l279.62,292.33L1680.86,793.8
		c-11.27,11.27-11.27,29.56,0,40.83c5.64,5.64,13.03,8.46,20.42,8.46c7.39,0,14.78-2.82,20.42-8.46l173.72-173.72l34.76,36.34
		L1646.96,983.83z"/>
</g>
<g id="Layer_9" class="st0">
</g>
<g id="Layer_7" class="st0">
	<path class="st11" d="M1290.88,862.74l72.49,81.26l-0.28,0.25l-63.4,56.73c-29.2,26.15-70.24,30.79-103.62,14.95
		c-10.88-5.16-20.92-12.46-29.49-21.9L1128,951.48l-80.59-88.84l-62.87-69.33l-54.86-60.48c13.66-7.37,25.69-17.8,35.1-30.68
		l43.98-60.31c19.66-27,59.22-28.92,81.47-4l53.36,59.78L1290.88,862.74z"/>
	<path class="st14" d="M262.56,733.64v112.33l-93.06,12.56c-14.67,2.32-27.98-8.81-27.98-23.41v-90.63
		c0-14.6,13.3-25.73,27.98-23.41L262.56,733.64z"/>
	<path class="st11" d="M1884.35,1287.83v27.31c0,30.07-24.38,54.44-54.44,54.44h-767.42c-8.98,0-16.84-6.04-19.15-14.71l0,0
		c-2.74-10.32-12.07-17.48-22.74-17.48H719.2c-10.67,0-20.01,7.16-22.75,17.48l0,0c-2.32,8.67-10.18,14.71-19.15,14.71H302.96
		c-30.07,0-54.44-24.38-54.44-54.44v-26.89v-138.34h198.4h145.47h135.85h181.16h135.88h839.08V1287.83L1884.35,1287.83z"/>
	<path class="st16" d="M1676.3,944.88h-312.13l-0.81-0.88l-72.49-81.26l-147.29-165.12l-53.36-59.78
		c-22.25-24.92-61.81-22.99-81.47,4l-43.98,60.31c-9.41,12.88-21.45,23.31-35.1,30.68c-15.2,8.21-32.4,12.67-50.16,12.67H610.28
		c-34.79,0-67.36-17.17-87.02-45.88l-52.45-76.5c-5.16-7.53-13.7-12.03-22.83-12.03H298.68c-27.7,0-50.16,22.46-50.16,50.16v72.38
		h0.07v112.33h-0.07v143.92v212.68h1635.83v-49.64C1884.35,1038.03,1791.2,944.88,1676.3,944.88z"/>
	<path class="st10" d="M608.63,1132.12c-117.46,0-212.68-95.22-212.68-212.68l0,0V775.52h0.07V663.19h-0.07V611.1h-97.27
		c-27.7,0-50.16,22.46-50.16,50.16v72.38h0.07v112.33h-0.07v143.92v212.68h1635.83v-49.64c0-7.02-0.36-13.97-1.04-20.81H608.63z"/>
	<g class="st1">
		<path class="st17" d="M1196.07,1015.93l-150.8,186.64H909.39L1128,951.48l38.58,42.54
			C1175.14,1003.47,1185.18,1010.77,1196.07,1015.93z"/>
		<polygon class="st17" points="984.54,793.31 1047.41,862.64 728.22,1202.57 592.38,1202.57 		"/>
	</g>
	<path class="st12" d="M446.91,1188.28v14.29h-198.4V989.88C358.07,989.88,446.91,1078.73,446.91,1188.28z"/>
	<g class="st1">
		<path class="st17" d="M1089.28,777.51c-6.8,0-13.59-2.62-18.74-7.84c-10.21-10.35-10.1-27.02,0.25-37.22l54.29-53.56
			c10.35-10.21,27.02-10.1,37.23,0.25c10.21,10.35,10.1,27.02-0.25,37.22l-54.29,53.56
			C1102.64,774.99,1095.96,777.51,1089.28,777.51z"/>
		<path class="st17" d="M1155.98,858.25c-6.8,0-13.59-2.62-18.74-7.84c-10.21-10.35-10.1-27.02,0.25-37.22l54.29-53.56
			c10.35-10.22,27.02-10.1,37.23,0.25c10.21,10.35,10.1,27.02-0.25,37.22l-54.29,53.56
			C1169.34,855.72,1162.66,858.25,1155.98,858.25z"/>
		<path class="st17" d="M1236.71,942.49c-6.8,0-13.59-2.62-18.74-7.84c-10.21-10.35-10.1-27.02,0.25-37.22l54.29-53.56
			c10.35-10.22,27.02-10.1,37.23,0.25c10.21,10.35,10.1,27.02-0.25,37.22l-54.29,53.56
			C1250.07,939.97,1243.39,942.49,1236.71,942.49z"/>
	</g>
	<g class="st1">
		<path class="st18" d="M1236.71,1261.92h-80.73c-14.54,0-26.33,11.78-26.33,26.33c0,14.54,11.79,26.33,26.33,26.33h80.73
			c14.54,0,26.33-11.78,26.33-26.33C1263.04,1273.71,1251.25,1261.92,1236.71,1261.92z"/>
		<path class="st18" d="M1676.3,918.56h-300.34L1109.87,620.3c-15.92-17.85-38.78-27.44-62.64-26.23
			c-23.89,1.18-45.67,12.94-59.76,32.26l-43.96,60.3c-14.85,20.38-38.78,32.54-63.99,32.54H610.29c-26.13,0-50.55-12.87-65.32-34.43
			l-60.67-88.53c-4.91-7.16-13.03-11.44-21.72-11.44H298.69c-42.19,0-76.5,34.32-76.5,76.5v41.51l-48.57-7.71
			c-14.7-2.34-29.59,1.85-40.88,11.48c-11.15,9.52-17.54,23.34-17.54,37.94v90.61c0,14.59,6.39,28.42,17.54,37.94
			c9.23,7.88,20.89,12.12,32.87,12.12c2.66,0,5.34-0.21,8.01-0.63l0,0l48.57-7.71v438.34l0,0c0,44.54,36.23,80.77,80.76,80.77H692.5
			c11.92,0,22.35-8.01,25.43-19.53l3.39-12.67h297.13l3.39,12.67c3.08,11.52,13.51,19.53,25.43,19.53h782.63
			c44.53,0,80.77-36.23,80.77-80.76v-162.23l0,0C1910.68,1023.69,1805.54,918.56,1676.3,918.56z M986.05,717.65l43.96-60.3
			c4.67-6.4,11.88-10.3,19.8-10.69c7.94-0.43,15.48,2.78,20.76,8.69l255.65,286.54l-44.09,39.45
			c-27.85,24.92-70.93,22.67-96.03-5.01L968.87,736.83C975.15,731.05,980.94,724.66,986.05,717.65z M167.85,832.13v-84.66
			l54.33,8.63v67.4L167.85,832.13z M1829.91,1343.26h-762.68c-7.28-19.19-25.8-32.2-46.65-32.2H719.21
			c-20.85,0-39.37,13.01-46.65,32.2H302.95c-15.5,0-28.11-12.61-28.11-28.11v-0.57h249.3c14.54,0,26.33-11.78,26.33-26.33
			c0-14.54-11.79-26.33-26.33-26.33h-249.3v-33.04h1333.08c14.54,0,26.33-11.78,26.33-26.33c0-14.54-11.79-26.33-26.33-26.33H274.84
			l0,0c0.03-0.54,0.03-513.86,0.03-514.41l0,0c0-0.55,0,0-0.03-0.54l0,0c0-13.15,10.7-23.85,23.85-23.85H448.7l52.83,77.08
			c24.6,35.89,65.25,57.31,108.76,57.31h269.23c14.89,0,29.5-2.6,43.28-7.4l224.3,247.3c23.77,26.21,56.64,39.55,89.62,39.55
			c28.73,0,57.55-10.12,80.52-30.68l55.19-49.38h303.87c100.2,0,181.72,81.52,181.72,181.72v23.31h-144.8
			c-14.54,0-26.33,11.78-26.33,26.33c0,14.54,11.79,26.33,26.33,26.33h144.8v32.62h-526.53c-14.54,0-26.33,11.78-26.33,26.33
			c0,14.54,11.79,26.33,26.33,26.33h526.53v1C1858.02,1330.65,1845.41,1343.26,1829.91,1343.26z"/>
	</g>
</g>
<g id="Layer_6" class="st0">
	<path class="st16" d="M1459.09,393.94l-8.27,410.96c-0.17,8.24,2.03,16.35,6.33,23.39l55.96,91.57l65.84,105.34
		c3.44,5.51,5.6,11.73,6.31,18.19l18.53,169.44c0.2,1.79,0.28,3.59,0.25,5.39l-4.48,278.6c-0.38,23.69,18.4,43.26,42.08,43.86
		l136.91,3.47c24.26,0.61,44.27-18.88,44.28-43.16l0.15-490.05c0-5.7-1.12-11.34-3.31-16.6l-141.9-341.1
		c-1.73-4.16-4.1-8.03-7.03-11.46L1459.09,393.94z"/>
	<path class="st16" d="M558.41,368.91c-0.01-0.44-0.57-0.63-0.84-0.28L374.54,603.16l-45.56,56.7c-0.03,0.04-0.06,0.08-0.07,0.13
		l-94.3,249.9l-37.15,106.45c-0.02,0.05-0.03,0.1-0.03,0.16l1.55,511.96c0,0.26,0.22,0.47,0.48,0.47l218.22-4.6
		c0.25-0.01,0.45-0.2,0.46-0.45l6.06-188.59l7.59-233.03c0-0.05,0.01-0.09,0.02-0.13l58.61-174.62c0.01-0.02,0.02-0.04,0.02-0.06
		l75.58-151.8c0.03-0.07,0.05-0.14,0.05-0.22L558.41,368.91z"/>
	<path class="st12" d="M686.06,297.94v1064.9c0,140.74,107.28,258.29,247.44,271.1l498.79,45.6l4.26,66.81l-69.65,27.01
		l-760.45-9.95l-41.22-34.11l4.82-1349.54c0,0,30.72-62.63,32.85-69.03C605.04,304.34,686.06,297.94,686.06,297.94z"/>
	<path class="st19" d="M642.17,298.61c-40.88,5.35-71.61,39.93-72.1,81.15l-4.82,400.04l2.7,933.58
		c0.08,27.68,22.49,50.1,50.18,50.19l775.62,2.52c27.64,0.09,50.19-22.13,50.5-49.77l10.81-953.58c0,0-3.25-208-2.37-388.38
		c0.17-34.66-24.47-64.47-58.54-70.8l-195.23-36.26c-6.42-1.19-12.48-3.72-18.03-7.17c-46.52-28.86-223.24-65.17-342.77,8.18
		c-5.94,3.65-12.56,6.01-19.47,6.94C761.44,282.96,692.71,292,642.17,298.61z"/>
	<path class="st20" d="M1448.66,353.62l233.76,303.11c4.44,6.85,8.18,14.14,11.15,21.75l118.42,303.56
		c8.6,16.54,13.01,34.94,12.86,53.58c-1.82,222.39-2.7,387.71-3.05,462.24c-0.11,24.04-19.96,43.3-43.99,42.69l-127.49-3.23
		c-29.34-0.74-52.8-24.65-52.98-54l-2.14-351.16c-0.25-41.1-9.48-81.64-27.05-118.8l-114.28-213.09"/>
	<path class="st21" d="M585.14,332.05L340.8,647.98c-0.85,1.1-1.66,2.23-2.39,3.4c-3.96,6.34-7.31,13.03-10.03,19.99L210.6,973.3
		c-0.42,1.09-0.91,2.15-1.43,3.2c-8.07,16.13-12.21,33.96-12.06,52.01c1.89,230.29,2.41,392.27,2.55,464.22
		c0.05,22.95,18.97,41.35,41.91,40.77l143.73-3.64c21.73-0.55,39.1-18.26,39.24-40l2.17-355.91c0.29-46.96,10.84-93.3,30.91-135.76
		L566.91,767"/>
	<path class="st22" d="M804.04,279.46c0,0,181.94,309.87,420.74,0"/>
	<path class="st7" d="M1666.83,660.4l-54.66,47.13l-38.21,32.95c-20.37,27.01,5.69,51.64,30.8,34.11
		c25.11-17.53,87.18-77.7,87.18-77.7"/>
	<path class="st7" d="M422.7,1175.14l-72.17-0.21l-50.45-0.15c-33.09,7.05-29.54,42.74,0.91,45.95
		c30.46,3.21,116.77-1.57,116.77-1.57"/>
</g>
<g id="Layer_5" class="st0">
	<path class="st16" d="M1470.29,452.77l-34.87,84.36l-15.75,152.97l31.49,152.97l9.56,125.97l13.5,185.59
		c0,0-3.37,258.13-1.69,263.19c1.69,5.06-6.75,134.97-6.75,134.97s87.73,259.82,92.79,259.82c5.06,0,140.03-23.62,140.03-23.62
		l-6.75-415.04l-47.24-310.43l-47.24-317.18l-84.36-263.19L1470.29,452.77z"/>
	<polygon class="st16" points="583.98,448.27 635.72,547.25 649.21,675.47 622.22,813.81 591.85,1043.27 598.6,1353.7 
		608.72,1583.15 547.98,1687.75 369.15,1654.01 392.77,1208.61 480.5,682.22 	"/>
	<path class="st12" d="M1251.52,1161.37l18.56,104.6l97.85,210.89l-3.37,82.67c0,0-190.65-226.08-155.22-401.54
		C1246.46,1161.37,1251.52,1161.37,1251.52,1161.37z"/>
	<path class="st12" d="M652.59,381.91l83.8,145.12c13.08,22.66,20.15,48.29,20.52,74.46l8.21,583.04
		c2.21,157.16,121.54,287.88,277.85,304.36l421.97,44.5l-5.06,68.33l-847.79-10.12l-30.37-250.54c0,0,27.84-450.47,27.84-458.06
		s30.37-225.23,30.37-225.23l-20.25-164.5l-30.37-55.68L652.59,381.91z"/>
	<g class="st1">
		<g>
			<g>
				<g>
					<path d="M928.17,1054.75c-11.82,0-21.41-9.59-21.41-21.41V471.48c0-29.44-4.2-40.81-5.77-44.02
						c-7.15-4.72-11.05-13.5-9.13-22.38c2.49-11.56,13.88-18.92,25.44-16.42c14.72,3.17,32.27,20.12,32.27,82.82v561.87
						C949.58,1045.16,940,1054.75,928.17,1054.75z"/>
				</g>
				<g>
					<path d="M1136.62,1054.75c-11.83,0-21.41-9.59-21.41-21.41V471.48c0-62.7,17.55-79.65,32.27-82.82
						c11.56-2.5,22.94,4.86,25.44,16.42c1.91,8.88-1.98,17.66-9.13,22.38c-1.56,3.22-5.77,14.58-5.77,44.02v561.87
						C1158.03,1045.16,1148.45,1054.75,1136.62,1054.75z"/>
				</g>
			</g>
			<path d="M1717.18,1652.5c-15.17-490.95-74.46-797.51-121.53-968.23c-49.77-180.51-96.42-251.97-101.56-259.5
				c-5.06-8.08-49.65-75-158.42-108.25c11.5-18.57,23.14-45.34,22.82-77.32c-0.42-41.66-20.59-81.06-59.94-117.13
				c-41.26-36.2-132.49-65.05-266.14-65.05c0,0-0.01,0-0.02,0c0,0-0.01,0-0.02,0c-133.59,0-218.7,24.19-266.08,64.98c0,0,0,0,0,0
				c-39.4,36.09-59.58,75.52-60,117.2c-0.33,31.98,11.32,58.76,22.81,77.32c-108.72,33.25-153.32,100.13-158.39,108.24
				c-5.12,7.5-51.78,78.94-101.56,259.5c-47.07,170.73-106.36,477.29-121.52,968.23c0,0.12-0.01,143.16-0.01,143.16
				c0,10.63,7.81,19.66,18.33,21.19c0,0,140.12,20.26,141.14,20.26c9.02,0,17.23-5.71,20.23-14.45l47.07-136.96
				c0.04-0.12,16.24-54.14,16.24-54.14l20.57,90.88c2.21,9.75,10.88,16.68,20.88,16.68h800.63c10,0,18.67-6.93,20.88-16.68
				l20.58-90.89c0,0,16.2,54.02,16.24,54.15l47.06,136.96c3,8.74,11.21,14.45,20.23,14.45c1.02,0,141.15-20.26,141.15-20.26
				c10.52-1.53,18.33-10.55,18.33-21.19C1717.19,1795.66,1717.19,1652.62,1717.18,1652.5z M792.63,156.5
				c18.11-20.96,72.77-56.67,239.75-56.67c0,0,0.01,0,0.02,0c0,0,0.01,0,0.02,0c163.58,0,218.94,34.74,238.09,54.78
				c16.42,17.18,10,36.27,8.12,40.9c-2.63-0.48-39.96-5.01-64.05-6.53c-48.73-3.08-113.43-4.77-182.18-4.77s-133.44,1.7-182.17,4.77
				c-24.09,1.52-61.42,6.05-64.06,6.53C784.29,190.88,776.85,174.76,792.63,156.5z M1244.96,234.25
				c-9.66,7.63-67.03,47.9-84.36,61.65H904.2c-17.33-13.75-74.71-54.03-84.37-61.66c39.23-3.75,111.75-7.23,212.57-7.23
				C1133.25,227.02,1205.75,230.5,1244.96,234.25z M492.59,1791.97l-102.16-14.84v-99.4l135.01,18.66L492.59,1791.97z
				 M598.99,816.78c-46.76,214.36-30.98,567.6-21.93,710.9l-38.16,127.34l-147.87-20.43c15.85-472.24,72.8-768.35,118.1-934.25
				c31.33-114.73,61.49-184.43,79.65-220.51C661.85,628.15,599.16,815.96,598.99,816.78z M1010.97,1696.3H649.19l-19.54-86.28
				h381.32V1696.3z M1010.97,1567.21H718.14v-90.62c17.18-27.72,90.49-152.89,108.56-297.69h184.27L1010.97,1567.21L1010.97,1567.21
				z M1010.97,1136.07H807.46c-11.09,0-20.35,8.47-21.32,19.53c-13.95,158.1-106.4,301.67-107.33,303.09
				c-2.27,3.48-3.48,7.54-3.48,11.7v96.82h-52.61c-6.77-94.53-32.41-507.96,17.86-740.15c6.63-19.91,71.52-226.15-26.14-389.72
				c16.24-20,60.16-63.85,145.54-84.92c13.28,11.43,39.9,33.61,63.31,48.62c3.58,2.29,7.58,3.39,11.53,3.39
				c7.05,0,13.95-3.48,18.04-9.85c6.38-9.95,3.49-23.19-6.47-29.58c-27.77-17.81-62.53-48.5-65.97-51.56
				c-1.65-1.64-31.74-32.42-31.32-73.82c0.06-6.05,0.8-12.07,2.15-18.07c15.83,29.01,45.57,49.86,78.66,72.98
				c26.79,18.71,57.13,39.91,86.63,69.41c90.06,90.06,94.29,203.23,94.44,218.7C1010.98,583.17,1010.97,1136.07,1010.97,1136.07z
				 M1032.4,469.39c-14.65-41.06-39.31-87.67-80.68-130.67h161.36C1071.71,381.71,1047.05,428.33,1032.4,469.39z M1415.61,1696.3
				h-361.79v-86.28h381.32L1415.61,1696.3z M1053.82,1567.21v-388.32h184.27c18.08,144.8,91.39,269.98,108.57,297.69v90.62H1053.82z
				 M1442.08,1567.21h-52.6v-96.82c0-4.15-1.21-8.22-3.48-11.69c-0.93-1.43-93.4-144.99-107.34-303.1
				c-0.98-11.05-10.23-19.53-21.32-19.53h-203.51c0,0,0-551.42-0.01-551.63c0-0.03,4.78-130.85,94.44-220.5
				c29.5-29.5,59.85-50.7,86.63-69.41c33.1-23.12,62.83-43.98,78.66-72.98c1.32,5.87,2.05,11.77,2.14,17.68
				c0.62,41.83-29.88,72.79-31.33,74.23c-3.6,3.19-38.2,33.73-65.95,51.54c-9.95,6.38-12.84,19.63-6.47,29.58
				c4.09,6.38,10.99,9.85,18.04,9.85c3.96,0,7.96-1.1,11.53-3.39c23.41-15.01,50.03-37.19,63.31-48.62
				c85.44,21.08,129.36,64.98,145.55,84.91c-97.67,163.57-32.78,369.82-26.15,389.72
				C1474.5,1059.24,1448.86,1472.67,1442.08,1567.21z M1465.8,816.78c-0.18-0.8-62.86-188.64,10.22-336.96
				c46.62,92.78,172.74,409.4,197.74,1154.77l-147.86,20.43l-38.17-127.36C1496.79,1384.35,1512.58,1031.13,1465.8,816.78z
				 M1572.2,1791.97l-32.84-95.58l135.01-18.66v99.4L1572.2,1791.97z"/>
		</g>
	</g>
</g>
<g id="Layer_4" class="st0">
	<g class="st1">
		<path class="st6" d="M541.47,296.24h-64.53L302.1,479.02L131.55,657.33l-65.86,68.86c-7.19,7.52-7.09,19.4,0.22,26.79
			l297.19,300.73c7.49,7.58,19.72,7.62,27.26,0.08l86.28-86.28h0.31v0l64.53-0.82V296.24L541.47,296.24z"/>
		<path class="st6" d="M1960.19,726.18l-411.25-429.94h-105.35V958.7l105.35,8.81h0.31l86.28,86.28c7.54,7.54,19.77,7.5,27.26-0.08
			l297.19-300.73C1967.28,745.58,1967.38,733.71,1960.19,726.18z"/>
	</g>
	<path class="st11" d="M1362.11,233.9l-0.19-0.9H663.96l-0.38,0.96l-186.64,63.12V759.8v115.68v92.85v768.28
		c0,12.96,8.61,24.35,21.08,27.88l197.75,55.93c86.88,24.6,179.96,13.88,259.01-29.77l58.15-32.12l58.15,32.12
		c79.05,43.65,172.14,54.37,259.01,29.77l197.75-55.93c12.48-3.53,21.08-14.91,21.08-27.88V968.34V297.07L1362.11,233.9z"/>
	<path class="st12" d="M819.13,1777.58l-63.66-18c-91.8-25.96-155.18-109.75-155.18-205.15V925.5v-92.85V716.96V255.36
		l-123.36,41.72V759.8v115.68v92.85v768.28c0,12.96,8.61,24.35,21.08,27.88l197.75,55.93c86.88,24.6,179.96,13.88,259.01-29.77
		l6.8-3.76C914.4,1793.74,865.88,1790.82,819.13,1777.58z"/>
	<path class="st23" d="M1453.46,1777.58c-86.88,24.6-179.96,13.88-259.01-29.77l-58.15-32.12l-58.15,32.12
		c-14.95,8.26-30.41,15.32-46.22,21.2l39.16,21.63c79.05,43.65,172.14,54.37,259.01,29.77l197.74-55.93
		c7.14-2.02,12.95-6.67,16.67-12.66L1453.46,1777.58z"/>
	<path class="st12" d="M1361.91,233c-4.74,8.98-9.41,18.01-13.65,27.26l-122.31,266.42l-213.01-153.32v1152.97v231.37l58.15,32.12
		c79.05,43.65,172.14,54.37,259.01,29.77l197.75-55.93c12.48-3.53,21.08-14.91,21.08-27.88V967.5V296.24L1361.91,233z"/>
	<path class="st14" d="M1432.94,843.42c12.92,9.1,14.38,27.96,2.74,38.6c-47.08,42.99-119.31,49.05-173.56,10.8
		c-54.22-38.29-72.72-108.36-48.01-167.12c6.13-14.54,24.37-19.47,37.25-10.37L1432.94,843.42z"/>
	<path class="st10" d="M1406.53,1532.85c19.74,12.92,17.47,42.53-4.01,52.29l-116.8,53.06c-21.48,9.76-45.31-8.02-42.03-31.39
		l16.58-118.65c3.01-21.75,27.65-32.93,46.04-20.9L1406.53,1532.85z"/>
	<g class="st1">
		<path class="st2" d="M1334.73,1282.28c3.97,13.26-3.59,27.26-16.85,31.27l-77.47,23.17c-13.3,3.97-27.3-3.55-31.27-16.85
			l-47.55-158.76c-3.97-13.26,3.59-27.26,16.85-31.27l77.47-23.17c13.3-3.97,27.3,3.55,31.27,16.85L1334.73,1282.28z"/>
		<path class="st2" d="M887.5,660.99c13.38,3.7,21.17,17.58,17.43,30.92l-12.99,46.7c-3.74,13.34-17.58,21.17-30.96,17.43
			l-108.2-30.19c-13.38-3.7-21.17-17.58-17.43-30.92l12.99-46.7c3.74-13.34,17.58-21.17,30.96-17.43L887.5,660.99z"/>
	</g>
	<circle class="st13" cx="816.28" cy="1229.43" r="69.41"/>
	<path class="st16" d="M787.01,1529.3c11.8,18.78,6.17,43.57-12.61,55.41l-69.06,43.46c-18.78,11.8-43.57,6.17-55.41-12.61
		l-43.46-69.06c-11.8-18.78-6.17-43.57,12.61-55.41l69.06-43.46c18.78-11.8,43.57-6.17,55.41,12.61L787.01,1529.3z"/>
	<g class="st1">
		<path class="st24" d="M758.7,912.02c19.74,12.92,17.47,42.53-4.01,52.29l-116.8,53.06c-21.48,9.76-45.31-8.02-42.03-31.39
			l16.58-118.65c3.01-21.75,27.65-32.93,46.04-20.9L758.7,912.02z"/>
		<path class="st24" d="M1792.14,711.5c19.74,12.92,17.47,42.53-4.01,52.29l-116.8,53.06c-21.48,9.76-45.31-8.02-42.03-31.39
			l16.58-118.65c3.01-21.75,27.65-32.93,46.04-20.9L1792.14,711.5z"/>
	</g>
	<polygon class="st10" points="1267.44,122.72 758.43,122.72 758.43,198.56 1012.94,373.36 1280.93,176.62 	"/>
	<path class="st25" d="M1012.94,373.36L815.5,515.47c-8.07,5.81-19.43,2.81-23.58-6.23L677.61,260.26
		c-4.24-9.25-8.91-18.28-13.65-27.26c-4.09-7.67-8.25-15.35-12.3-23.06c-11.41-21.67-1.5-50.17,23.48-58.73l83.29-28.5
		L1012.94,373.36z"/>
	<path class="st16" d="M476.94,758.97v115.68h-91.58c-11.18,0-20.25-9.06-20.25-20.25v-75.19c0-11.18,9.06-20.25,20.25-20.25
		L476.94,758.97L476.94,758.97z"/>
	<path class="st10" d="M302.1,479.02c22.25,22.33,36.02,53.14,36.02,87.15c0,68.14-55.26,123.4-123.4,123.4
		c-32.04,0-61.23-12.22-83.18-32.24L302.1,479.02z"/>
	<g class="st1">
		<path class="st2" d="M1350.73,151.21c24.99,8.56,34.9,37.06,23.48,58.73c-4.05,7.71-8.21,15.38-12.3,23.06
			c-4.74,8.98-9.41,18.01-13.65,27.26l-114.31,248.98c-4.15,9.03-15.51,12.04-23.58,6.23l-197.44-142.11l254.5-250.64
			L1350.73,151.21z"/>
		<path class="st2" d="M799.91,526.67l213.02-153.3l-254.5-250.64l-83.28,28.49c-25.01,8.56-34.9,37.04-23.49,58.74
			c8.79,16.71,18.07,33.15,25.94,50.3L799.91,526.67z"/>
	</g>
	<path class="st7" d="M1994,719.7l-424.04-443.31c-0.01-0.01-0.01-0.02-0.02-0.02l-0.12-0.12c-0.01-0.01-0.02-0.02-0.03-0.03
		c-0.16-0.16-0.32-0.32-0.48-0.48c-0.01-0.01-0.02-0.02-0.03-0.03c-0.33-0.33-0.67-0.65-1.02-0.97c-0.04-0.04-0.08-0.08-0.13-0.12
		c-0.12-0.1-0.24-0.21-0.36-0.31c-0.06-0.05-0.13-0.11-0.19-0.16c-0.1-0.08-0.2-0.17-0.3-0.25c-0.19-0.16-0.39-0.32-0.59-0.47
		c-0.02-0.01-0.03-0.03-0.05-0.04c-0.14-0.11-0.28-0.22-0.42-0.32c-0.01-0.01-0.02-0.01-0.02-0.02c-2.62-1.95-5.5-3.42-8.51-4.37
		l-154.68-52.31c6.49-16.54,6.47-35.07-0.23-51.92c-7.6-19.12-23.17-33.93-42.72-40.61l-82.66-28.28c-1.91-0.7-3.91-1.21-5.98-1.5
		c-0.04,0-0.07-0.01-0.11-0.02c-0.13-0.02-0.26-0.03-0.39-0.05c-0.15-0.02-0.29-0.03-0.44-0.05c-0.04,0-0.09-0.01-0.13-0.02
		c-0.23-0.02-0.46-0.04-0.69-0.06l-0.05,0c-0.82-0.06-1.64-0.09-2.46-0.08H758.64c-0.8,0-1.59,0.02-2.39,0.08
		c-0.03,0-0.06,0-0.09,0.01c-0.22,0.02-0.44,0.03-0.65,0.06c-0.05,0-0.11,0.01-0.16,0.02c-0.14,0.02-0.29,0.03-0.44,0.05
		c-0.13,0.02-0.26,0.03-0.38,0.05c-0.04,0-0.08,0.01-0.12,0.02c-2.07,0.29-4.06,0.79-5.97,1.49l-82.66,28.28
		c-19.54,6.69-35.11,21.49-42.72,40.61c-6.7,16.84-6.71,35.37-0.23,51.92l-154.75,52.33c-2.97,0.95-5.81,2.4-8.41,4.32
		c-0.04,0.03-0.07,0.05-0.11,0.08c-0.12,0.09-0.24,0.18-0.36,0.27c-0.08,0.07-0.17,0.14-0.26,0.2c-0.11,0.09-0.22,0.18-0.33,0.27
		c-0.13,0.1-0.26,0.21-0.39,0.32c-0.05,0.04-0.1,0.08-0.15,0.13c-0.14,0.12-0.27,0.23-0.4,0.35c-0.03,0.03-0.07,0.06-0.1,0.09
		c-0.35,0.32-0.7,0.64-1.03,0.97c-0.01,0.01-0.02,0.02-0.03,0.03c-0.16,0.16-0.32,0.32-0.48,0.48c-0.01,0.01-0.02,0.02-0.03,0.03
		l-0.12,0.12c-0.01,0.01-0.01,0.02-0.02,0.02L31.87,719.7c-10.83,11.31-10.68,29.18,0.33,40.32l323.91,327.77
		c5.41,5.47,12.79,8.57,20.49,8.59h0.09c7.67,0,15.02-3.04,20.45-8.47l50.88-50.88v720.68c0,12.94,8.6,24.31,21.05,27.83
		l218.83,61.9c33.55,9.49,67.7,14.19,101.66,14.19c62.05,0,123.44-15.68,179.19-46.48l44.18-24.4l44.18,24.4
		c55.76,30.79,117.14,46.48,179.19,46.48c33.96,0,68.12-4.7,101.66-14.19l218.83-61.9c12.45-3.52,21.05-14.89,21.05-27.83v-720.68
		l50.88,50.88c5.42,5.42,12.78,8.47,20.45,8.47h0.08c7.7-0.02,15.07-3.11,20.49-8.59l323.91-327.77
		C2004.68,748.89,2004.83,731.01,1994,719.7z M1349.06,185.83c1.41,3.56,1.25,7.44-0.44,10.66c-2.26,4.29-4.54,8.56-6.83,12.83
		c-1.79,3.35-3.6,6.73-5.41,10.13c-0.05,0.09-0.09,0.18-0.14,0.27c-4.89,9.22-117.41,253.18-121.9,262.96l0,0l-156.68-112.76
		L1275,155.87l66.37,22.71C1345.96,180.14,1348.08,183.39,1349.06,185.83z M1012.94,332.77L829.02,151.64h367.84L1012.94,332.77z
		 M676.82,185.83c0.97-2.44,3.09-5.68,7.69-7.26l66.37-22.71l217.34,214.04L811.53,482.67l0,0
		c-6.19-13.49-120.76-260.88-127.45-273.36c-2.29-4.27-4.58-8.54-6.83-12.83C675.56,193.27,675.4,189.39,676.82,185.83z
		 M1520.01,1735.83l-197.78,55.95c-80.09,22.66-164.3,12.97-237.15-27.26l-43.23-23.88v-131.16c0-15.97-12.94-28.92-28.92-28.92
		s-28.92,12.95-28.92,28.92v131.17l-43.23,23.87c-72.86,40.24-157.06,49.91-237.15,27.26l-197.78-55.94V655.52
		c0-15.97-12.94-28.92-28.92-28.92s-28.92,12.95-28.92,28.92v299.7l-71.22,71.22L93.11,739.36l354.92-371.04v171.52
		c0,15.97,12.94,28.92,28.92,28.92s28.92-12.95,28.92-28.92V316.99l143.63-48.57c0.62,1.29,1.22,2.6,1.82,3.9l122.31,266.41
		c3.61,7.85,10.54,13.68,18.89,15.89c2.44,0.65,4.92,0.96,7.39,0.96c6,0,11.92-1.87,16.89-5.45l167.21-120.34v1063.98
		c0,15.97,12.94,28.92,28.92,28.92c15.98,0,28.92-12.95,28.92-28.92V429.8l167.21,120.34c4.97,3.58,10.89,5.45,16.89,5.45
		c2.47,0,4.95-0.32,7.39-0.96c8.36-2.21,15.29-8.04,18.89-15.89l122.31-266.41c0.6-1.3,1.21-2.6,1.82-3.9L1520,316.99v1418.84
		H1520.01z M1649.07,1026.44l-71.22-71.21V368.31l354.92,371.04L1649.07,1026.44z"/>
</g>
<g id="Layer_3">
	<path class="st6" d="M1836.56,885.15l-310.44-466.45h-93.85v590.18l93.85,7.85h0.28l76.86,76.86
		c6.72,6.72,111.2,465.05,117.88,458.3l258.96-80.85C1986.62,1464.44,1842.97,891.85,1836.56,885.15z"/>
	<path class="st5" d="M1359.68,363.15l-0.17-0.8h-621.8l-0.34,0.86l-166.28,56.23v412.24v103.06v82.72v684.45
		c0,11.55,7.67,21.7,18.78,24.84l176.17,49.82c77.4,21.92,160.33,12.37,230.75-26.52l51.81-28.62l51.81,28.62
		c70.42,38.89,153.35,48.44,230.75,26.52l176.17-49.82c11.11-3.14,18.78-13.29,18.78-24.84v-684.46V419.43L1359.68,363.15z"/>
	<path class="st6" d="M875.95,1738.41l-56.71-16.04c-81.78-23.13-138.25-97.78-138.25-182.76V979.3v-82.72V793.51V382.27
		l-109.9,37.16v412.24v103.06v82.72v684.45c0,11.55,7.67,21.7,18.78,24.84l176.17,49.82c77.4,21.92,160.33,12.37,230.75-26.52
		l6.06-3.35C960.83,1752.8,917.6,1750.2,875.95,1738.41z"/>
	<path class="st26" d="M1441.07,1738.41c-77.4,21.92-160.33,12.37-230.75-26.52l-51.81-28.62l-51.81,28.62
		c-13.32,7.36-27.09,13.65-41.18,18.89l34.89,19.27c70.42,38.89,153.35,48.44,230.75,26.52l176.17-49.82
		c6.36-1.8,11.53-5.94,14.85-11.28L1441.07,1738.41z"/>
	<path class="st6" d="M1359.51,362.35c-4.23,8-8.38,16.04-12.16,24.29l-108.97,237.35L1048.61,487.4v1027.17v206.12l51.81,28.62
		c70.42,38.89,153.35,48.44,230.75,26.52l176.17-49.82c11.11-3.14,18.78-13.29,18.78-24.84v-684.45V418.69L1359.51,362.35z"/>
	<path class="st6" d="M134.56,1435l258.96,80.85c6.67,6.75,111.16-451.58,117.88-458.3l76.86-76.86h0.28l93.85-7.85V382.66h-93.85
		L278.1,849.12C271.69,855.82,128.05,1428.4,134.56,1435z"/>
	<path class="st18" d="M239.46,866.94c22.75-35.04,240.22-370.07,303.03-466.83l0,71.83c0,0,0,0,0,0.01l-263.1,425.51
		c-1.92,3.1-3.33,6.48-4.2,10.02l-129.93,531.9c0,0.01,0,0.01,0.01,0.01l230.5,69.12c0.01,0,0.01,0,0.01-0.01l98.74-387.84
		c0,0,0,0,0,0l72.63-132.33c0.01-0.01,0.02-0.01,0.02,0.01v76.28c0,0,0,0,0,0l-32.14,67.28c0,0,0,0,0,0l-121.35,421.13
		c0,0.01-0.01,0.01-0.01,0.01l-283.17-90.15c-2.21-0.7-3.52-2.95-3.02-5.21c10.93-49.19,119.96-540.1,129.42-584.56
		C237.36,870.92,238.22,868.84,239.46,866.94z"/>
	<line class="st27" x1="186.12" y1="1292.04" x2="324.68" y2="1344.77"/>
	
		<ellipse transform="matrix(0.3354 -0.9421 0.9421 0.3354 -1051.2604 1199.271)" class="st18" cx="324.36" cy="1344.72" rx="17.15" ry="16.92"/>
	<polygon class="st28" points="1275.34,264.1 821.88,264.1 821.88,331.67 1048.61,487.4 1287.37,312.12 	"/>
	<path class="st29" d="M1048.61,487.4L872.72,614c-7.19,5.17-17.31,2.5-21.01-5.55L749.87,386.64c-3.78-8.24-7.93-16.28-12.16-24.29
		c-3.64-6.84-7.35-13.67-10.96-20.54c-10.17-19.31-1.34-44.7,20.92-52.32l74.2-25.39L1048.61,487.4z"/>
	<g>
		<path class="st2" d="M1349.55,289.49c22.26,7.63,31.09,33.01,20.92,52.32c-3.61,6.87-7.32,13.71-10.96,20.54
			c-4.23,8-8.38,16.04-12.16,24.29l-101.83,221.81c-3.7,8.05-13.82,10.73-21.01,5.55l-175.89-126.6l226.73-223.3L1349.55,289.49z"/>
		<path class="st2" d="M858.83,623.97l189.78-136.58L821.88,264.1l-74.2,25.39c-22.28,7.62-31.1,33-20.93,52.33
			c7.83,14.88,16.1,29.53,23.11,44.82L858.83,623.97z"/>
	</g>
	<path class="st18" d="M1851.12,866.5c-34.84-53.68-239.31-368.66-299.88-461.99l0,71.83l263.1,425.51c1.92,3.1,3.33,6.48,4.2,10.02
		l128.59,526.44c0.75,3.07-1.04,6.19-4.06,7.09l-225.12,67.51l-98.75-387.85l-72.65-132.37v76.33l32.14,67.27
		c0,0.01,0,0.01,0.01,0.02l121.39,416.37c0.71,2.42,3.25,3.8,5.67,3.06l267.58-81.89c8.45-2.58,13.49-11.21,11.57-19.83
		c-19.08-85.67-112.56-505.38-126.89-571C1856.73,877.13,1854.4,871.55,1851.12,866.5z"/>
	<path class="st18" d="M1553.58,998.01l-1.69-3.08V472.06l0.52,0.84v-71.11c-2.27-3.5-4.09-6.3-5.35-8.25
		c-1.43-2.21-2.19-3.37-2.19-3.37c-0.01-0.01-0.01-0.01-0.02-0.02l-0.1-0.11c-0.01-0.01-0.02-0.02-0.03-0.03
		c-0.14-0.14-0.28-0.29-0.42-0.43c-0.01-0.01-0.02-0.02-0.02-0.02c-0.3-0.3-0.6-0.58-0.91-0.86c-0.04-0.03-0.08-0.07-0.12-0.1
		c-0.11-0.09-0.21-0.19-0.32-0.28c-0.05-0.05-0.11-0.1-0.17-0.14c-0.09-0.08-0.18-0.15-0.27-0.22c-0.17-0.14-0.35-0.28-0.52-0.42
		c-0.02-0.01-0.03-0.02-0.04-0.04c-0.13-0.1-0.25-0.19-0.38-0.29c-0.01-0.01-0.01-0.01-0.02-0.02c-2.33-1.74-4.9-3.04-7.58-3.89
		l-137.8-46.6c5.78-14.74,5.77-31.24-0.2-46.25c-6.77-17.03-20.65-30.23-38.06-36.18l-73.64-25.19c-1.7-0.63-3.48-1.07-5.33-1.33
		c-0.03,0-0.07-0.01-0.1-0.01c-0.11-0.01-0.23-0.03-0.34-0.04c-0.13-0.02-0.26-0.03-0.39-0.04c-0.04,0-0.08-0.01-0.12-0.01
		c-0.21-0.02-0.41-0.04-0.62-0.06l-0.04,0c-0.73-0.06-1.46-0.08-2.19-0.07H822.06c-0.71,0-1.41,0.02-2.13,0.07
		c-0.03,0-0.05,0-0.08,0.01c-0.19,0.01-0.39,0.03-0.58,0.05c-0.05,0-0.1,0.01-0.14,0.02c-0.13,0.01-0.26,0.03-0.39,0.04
		c-0.11,0.01-0.23,0.03-0.34,0.04c-0.04,0-0.07,0.01-0.11,0.01c-1.84,0.26-3.62,0.71-5.32,1.33l-73.64,25.19
		c-17.41,5.96-31.28,19.15-38.06,36.18c-5.97,15-5.98,31.51-0.2,46.25l-137.86,46.62c-2.64,0.85-5.18,2.13-7.49,3.85
		c-0.03,0.02-0.07,0.05-0.1,0.07c-0.11,0.08-0.21,0.16-0.32,0.24c-0.08,0.06-0.15,0.12-0.23,0.18c-0.1,0.08-0.2,0.16-0.3,0.24
		c-0.11,0.09-0.23,0.19-0.34,0.29c-0.04,0.04-0.09,0.08-0.13,0.11c-0.12,0.1-0.24,0.21-0.35,0.31c-0.03,0.03-0.06,0.06-0.09,0.08
		c-0.31,0.28-0.62,0.57-0.92,0.87l-0.02,0.02c-0.14,0.14-0.29,0.29-0.42,0.43l-0.03,0.03l-0.1,0.11c-0.01,0.01-0.01,0.01-0.02,0.02
		l-10.29,10.76l-0.88,71.18l4.16,10.81v165.21c22.75,25.83,51.53,10.08,51.53-12.41V437.18l127.98-43.27l110.57,240.83
		c3.21,7,9.39,12.19,16.83,14.16c2.17,0.57,4.38,0.86,6.58,0.86c5.35,0,10.62-1.67,15.05-4.85l148.97-107.21v960.3
		c22.75,25.83,51.53,10.08,51.53-12.41V537.68l148.96,107.21c4.43,3.19,9.7,4.85,15.05,4.85c2.2,0,4.41-0.28,6.58-0.86
		c7.45-1.97,13.62-7.16,16.83-14.16l110.56-240.83l127.99,43.28V1701.2h0.01l-176.2,49.84c-71.35,20.18-146.37,11.55-211.27-24.29
		l-38.51-21.27v-129.26c-22.75-25.83-51.53-10.08-51.53,12.41v116.85l-38.51,21.27c-64.91,35.85-139.93,44.47-211.27,24.29
		l-176.2-49.84V726.36c-22.75-25.83-51.53-10.08-51.53,12.41v267l-3.29,3.29v62.04l3.28-3.28v642.05c0,11.53,7.66,21.65,18.75,24.79
		l194.96,55.15c29.89,8.45,60.32,12.64,90.57,12.64c55.28,0,109.97-13.97,159.64-41.4l39.36-21.74l39.36,21.74
		c49.68,27.43,104.36,41.4,159.64,41.4c30.25,0,60.69-4.19,90.57-12.64l194.96-55.15c11.09-3.14,18.75-13.26,18.75-24.79
		l-3.29-646.89l4.98,10.42V998.01z M869.18,584.78c-5.52-12.02-107.58-232.41-113.55-243.53c-2.04-3.8-4.08-7.61-6.09-11.43
		c-1.5-2.86-1.64-6.32-0.38-9.49c0.86-2.18,2.76-5.06,6.85-6.46l59.13-20.23l193.62,190.69L869.18,584.78z M1048.61,451.23
		L884.76,289.87h327.71L1048.61,451.23z M1347.67,329.83c-2.01,3.82-4.05,7.62-6.09,11.43c-1.6,2.98-3.21,5.99-4.82,9.03l-0.12,0.24
		c-4.35,8.22-104.6,225.56-108.6,234.27l-139.59-100.46l193.62-190.69l59.13,20.23c4.1,1.4,5.99,4.29,6.85,6.46
		C1349.31,323.5,1349.17,326.96,1347.67,329.83z"/>
	<path class="st18" d="M1982.13,1589.96"/>
	<line class="st27" x1="1928.55" y1="1328.08" x2="1789.98" y2="1380.8"/>
	
		<ellipse transform="matrix(0.9421 -0.3354 0.3354 0.9421 -359.4056 680.4535)" class="st18" cx="1790.3" cy="1380.75" rx="16.92" ry="17.15"/>
	<path class="st18" d="M1908.63,1848.34"/>
</g>
<g id="Layer_2" class="st0">
	<path class="st12" d="M745.36,124.43"/>
	<path class="st30" d="M792.69,33.04l155.77,0.45c6.63,0.02,12.26,4.83,13.31,11.38c7.13,44.3,25.64,219.47,9.75,432.73
		c-0.42,5.68-5.15,10.09-10.83,10.36l-42.21,2.06c-6.03,0.29-11.26-4.14-11.94-10.14l-32.86-288.44c-0.05-0.46-0.72-0.46-0.78,0
		l-32.19,288.95c-0.64,5.73-5.58,10.01-11.35,9.81l-47.62-1.62c-5.4-0.18-9.75-4.5-9.97-9.9c-2.2-54.88-11.88-330.69,11.06-437.68
		C783.83,36.35,787.93,33.03,792.69,33.04z"/>
	<path class="st16" d="M865.7,62.98l0.94,0.17l66.98,3.74c0,0,5.53,18.38,5.7,18.89c0.17,0.51,22.64,20.26,22.64,20.26l10.55,1.53
		l-8.43-40.51l-32.17-0.51L865.7,62.98z"/>
	<path class="st16" d="M882.3,61.96l-0.94,0.17l-66.98,3.74c0,0-5.53,18.38-5.7,18.89c-0.17,0.51-22.64,20.26-22.64,20.26
		l-10.55,1.53l8.43-40.51l32.17-0.51L882.3,61.96z"/>
	<path class="st31" d="M795.4,32.51l-7.09,375.87c-1.35,24.34,15.33,46,39.21,50.89L845.7,463l-3.57,17.87l-69.19-4.34l-8.43-215.74
		c0,0,6.64-132.77,7.66-134.3c1.02-1.53,12.77-78.64,12.77-78.64L795.4,32.51z"/>
	<polygon class="st16" points="777.7,463.15 838.55,465.02 833.45,490.81 771.91,489.79 773.19,464.77 	"/>
	<polygon class="st16" points="910.17,463.87 973.36,463.23 968.26,490.81 906.72,489.79 908,464.77 	"/>
	<path class="st32" d="M792.69,33.04l155.77,0.45c6.63,0.02,12.26,4.83,13.31,11.38c7.13,44.3,25.64,219.47,9.75,432.73
		c-0.42,5.68-5.15,10.09-10.83,10.36l-42.21,2.06c-6.03,0.29-11.26-4.14-11.94-10.14l-32.86-288.44c-0.05-0.46-0.72-0.46-0.78,0
		l-32.19,288.95c-0.64,5.73-5.58,10.01-11.35,9.81l-47.62-1.62c-5.4-0.18-9.75-4.5-9.97-9.9c-2.2-54.88-11.88-330.69,11.06-437.68
		C783.83,36.35,787.93,33.03,792.69,33.04z"/>
	<polyline class="st33" points="798.81,62.8 816.26,62.76 946.21,62.48 	"/>
	<path class="st33" d="M777.53,110.98c2.04,0,42.38-17.02,37.45-44.09"/>
	<path class="st33" d="M970.04,107.83c-0.77,0-37.79-3.57-37.28-42.13"/>
	<path class="st34" d="M889.11,63.66l-0.77,60.51c0,0,1.79,20.68-30.64,36.51"/>
	<line class="st35" x1="863.57" y1="32" x2="863.06" y2="132.6"/>
	<path class="st33" d="M833.45,44"/>
	<line class="st33" x1="908.43" y1="468.6" x2="957.79" y2="468.6"/>
	<path class="st33" d="M785.87,467.91c1.36,0,53.11,1.36,53.11,1.36"/>
	<circle class="st7" cx="875.83" cy="49.11" r="4.34"/>
	<ellipse class="st7" cx="798.89" cy="62.78" rx="5.11" ry="4.99"/>
	<ellipse class="st7" cx="945.7" cy="62.46" rx="5.11" ry="5.06"/>
	<ellipse class="st7" cx="863.09" cy="132.57" rx="3.49" ry="3.46"/>
	
		<ellipse transform="matrix(0.9366 -0.3503 0.3503 0.9366 -1.9258 310.6398)" class="st7" cx="857.71" cy="160.64" rx="4.04" ry="4.01"/>
</g>
</svg>
